<svg width="70" height="16" viewBox="0 0 70 16" fill="none" xmlns="http://www.w3.org/2000/svg">
<path d="M7.52344 9.35156H3.11719L2.19531 12H0.140625L4.4375 0.625H6.21094L10.5156 12H8.45312L7.52344 9.35156ZM3.67188 7.75781H6.96875L5.32031 3.03906L3.67188 7.75781ZM18.6562 7.85938C18.6562 9.16667 18.3594 10.2109 17.7656 10.9922C17.1719 11.7682 16.375 12.1562 15.375 12.1562C14.4479 12.1562 13.7057 11.8516 13.1484 11.2422V15.25H11.25V3.54688H13L13.0781 4.40625C13.6354 3.72917 14.3932 3.39062 15.3516 3.39062C16.3828 3.39062 17.1901 3.77604 17.7734 4.54688C18.362 5.3125 18.6562 6.3776 18.6562 7.74219V7.85938ZM16.7656 7.69531C16.7656 6.85156 16.5964 6.18229 16.2578 5.6875C15.9245 5.19271 15.4453 4.94531 14.8203 4.94531C14.0443 4.94531 13.487 5.26562 13.1484 5.90625V9.65625C13.4922 10.3125 14.0547 10.6406 14.8359 10.6406C15.4401 10.6406 15.9115 10.3984 16.25 9.91406C16.5938 9.42448 16.7656 8.6849 16.7656 7.69531ZM27.6719 7.85938C27.6719 9.16667 27.375 10.2109 26.7812 10.9922C26.1875 11.7682 25.3906 12.1562 24.3906 12.1562C23.4635 12.1562 22.7214 11.8516 22.1641 11.2422V15.25H20.2656V3.54688H22.0156L22.0938 4.40625C22.651 3.72917 23.4089 3.39062 24.3672 3.39062C25.3984 3.39062 26.2057 3.77604 26.7891 4.54688C27.3776 5.3125 27.6719 6.3776 27.6719 7.74219V7.85938ZM25.7812 7.69531C25.7812 6.85156 25.612 6.18229 25.2734 5.6875C24.9401 5.19271 24.4609 4.94531 23.8359 4.94531C23.0599 4.94531 22.5026 5.26562 22.1641 5.90625V9.65625C22.5078 10.3125 23.0703 10.6406 23.8516 10.6406C24.4557 10.6406 24.9271 10.3984 25.2656 9.91406C25.6094 9.42448 25.7812 8.6849 25.7812 7.69531ZM39.3984 9.07031C39.3984 8.57031 39.2214 8.1849 38.8672 7.91406C38.5182 7.64323 37.8854 7.36979 36.9688 7.09375C36.0521 6.81771 35.3229 6.51042 34.7812 6.17188C33.7448 5.52083 33.2266 4.67188 33.2266 3.625C33.2266 2.70833 33.599 1.95312 34.3438 1.35938C35.0938 0.765625 36.0651 0.46875 37.2578 0.46875C38.0495 0.46875 38.7552 0.614583 39.375 0.90625C39.9948 1.19792 40.4818 1.61458 40.8359 2.15625C41.1901 2.69271 41.3672 3.28906 41.3672 3.94531H39.3984C39.3984 3.35156 39.2109 2.88802 38.8359 2.55469C38.4661 2.21615 37.9349 2.04688 37.2422 2.04688C36.5964 2.04688 36.0938 2.1849 35.7344 2.46094C35.3802 2.73698 35.2031 3.1224 35.2031 3.61719C35.2031 4.03385 35.3958 4.38281 35.7812 4.66406C36.1667 4.9401 36.8021 5.21094 37.6875 5.47656C38.5729 5.73698 39.2839 6.03646 39.8203 6.375C40.3568 6.70833 40.75 7.09375 41 7.53125C41.25 7.96354 41.375 8.47135 41.375 9.05469C41.375 10.0026 41.0104 10.7578 40.2812 11.3203C39.5573 11.8776 38.5729 12.1562 37.3281 12.1562C36.5052 12.1562 35.7474 12.0052 35.0547 11.7031C34.3672 11.3958 33.8307 10.974 33.4453 10.4375C33.0651 9.90104 32.875 9.27604 32.875 8.5625H34.8516C34.8516 9.20833 35.0651 9.70833 35.4922 10.0625C35.9193 10.4167 36.5312 10.5938 37.3281 10.5938C38.0156 10.5938 38.5312 10.4557 38.875 10.1797C39.224 9.89844 39.3984 9.52865 39.3984 9.07031ZM45.3047 1.49219V3.54688H46.7969V4.95312H45.3047V9.67188C45.3047 9.99479 45.3672 10.2292 45.4922 10.375C45.6224 10.5156 45.8516 10.5859 46.1797 10.5859C46.3984 10.5859 46.6198 10.5599 46.8438 10.5078V11.9766C46.4115 12.0964 45.9948 12.1562 45.5938 12.1562C44.1354 12.1562 43.4062 11.3516 43.4062 9.74219V4.95312H42.0156V3.54688H43.4062V1.49219H45.3047ZM47.6641 7.69531C47.6641 6.86719 47.8281 6.1224 48.1562 5.46094C48.4844 4.79427 48.9453 4.28385 49.5391 3.92969C50.1328 3.57031 50.8151 3.39062 51.5859 3.39062C52.7266 3.39062 53.651 3.75781 54.3594 4.49219C55.0729 5.22656 55.4583 6.20052 55.5156 7.41406L55.5234 7.85938C55.5234 8.69271 55.362 9.4375 55.0391 10.0938C54.7214 10.75 54.263 11.2578 53.6641 11.6172C53.0703 11.9766 52.3828 12.1562 51.6016 12.1562C50.4089 12.1562 49.4531 11.7604 48.7344 10.9688C48.0208 10.1719 47.6641 9.11198 47.6641 7.78906V7.69531ZM49.5625 7.85938C49.5625 8.72917 49.7422 9.41146 50.1016 9.90625C50.4609 10.3958 50.9609 10.6406 51.6016 10.6406C52.2422 10.6406 52.7396 10.3906 53.0938 9.89062C53.4531 9.39062 53.6328 8.65885 53.6328 7.69531C53.6328 6.84115 53.4479 6.16406 53.0781 5.66406C52.7135 5.16406 52.2161 4.91406 51.5859 4.91406C50.9661 4.91406 50.474 5.16146 50.1094 5.65625C49.7448 6.14583 49.5625 6.88021 49.5625 7.85938ZM61.5547 5.28125C61.3047 5.23958 61.0469 5.21875 60.7812 5.21875C59.9115 5.21875 59.3255 5.55208 59.0234 6.21875V12H57.125V3.54688H58.9375L58.9844 4.49219C59.4427 3.75781 60.0781 3.39062 60.8906 3.39062C61.1615 3.39062 61.3854 3.42708 61.5625 3.5L61.5547 5.28125ZM66.3203 12.1562C65.1172 12.1562 64.1406 11.7786 63.3906 11.0234C62.6458 10.263 62.2734 9.2526 62.2734 7.99219V7.75781C62.2734 6.91406 62.4349 6.16146 62.7578 5.5C63.0859 4.83333 63.5443 4.3151 64.1328 3.94531C64.7214 3.57552 65.3776 3.39062 66.1016 3.39062C67.2526 3.39062 68.1406 3.75781 68.7656 4.49219C69.3958 5.22656 69.7109 6.26562 69.7109 7.60938V8.375H64.1875C64.2448 9.07292 64.4766 9.625 64.8828 10.0312C65.2943 10.4375 65.8099 10.6406 66.4297 10.6406C67.2995 10.6406 68.0078 10.2891 68.5547 9.58594L69.5781 10.5625C69.2396 11.0677 68.7865 11.4609 68.2188 11.7422C67.6562 12.0182 67.0234 12.1562 66.3203 12.1562ZM66.0938 4.91406C65.5729 4.91406 65.151 5.09635 64.8281 5.46094C64.5104 5.82552 64.3073 6.33333 64.2188 6.98438H67.8359V6.84375C67.7943 6.20833 67.625 5.72917 67.3281 5.40625C67.0312 5.07812 66.6198 4.91406 66.0938 4.91406Z" fill="white"/>
</svg>
