<svg width="86" height="16" viewBox="0 0 86 16" fill="none" xmlns="http://www.w3.org/2000/svg">
<path d="M9.875 10.5234C9.46354 11.0599 8.89323 11.4661 8.16406 11.7422C7.4349 12.0182 6.60677 12.1562 5.67969 12.1562C4.72656 12.1562 3.88281 11.9401 3.14844 11.5078C2.41406 11.0755 1.84635 10.4583 1.44531 9.65625C1.04948 8.84896 0.84375 7.90885 0.828125 6.83594V5.94531C0.828125 4.22656 1.23958 2.88542 2.0625 1.92188C2.88542 0.953125 4.03385 0.46875 5.50781 0.46875C6.77344 0.46875 7.77865 0.78125 8.52344 1.40625C9.26823 2.03125 9.71615 2.93229 9.86719 4.10938H7.92969C7.71094 2.73958 6.91667 2.05469 5.54688 2.05469C4.66146 2.05469 3.98698 2.375 3.52344 3.01562C3.0651 3.65104 2.82812 4.58594 2.8125 5.82031V6.69531C2.8125 7.92448 3.07031 8.88021 3.58594 9.5625C4.10677 10.2396 4.82812 10.5781 5.75 10.5781C6.76042 10.5781 7.47917 10.349 7.90625 9.89062V7.66406H5.5625V6.16406H9.875V10.5234ZM11.5078 7.69531C11.5078 6.86719 11.6719 6.1224 12 5.46094C12.3281 4.79427 12.7891 4.28385 13.3828 3.92969C13.9766 3.57031 14.6589 3.39062 15.4297 3.39062C16.5703 3.39062 17.4948 3.75781 18.2031 4.49219C18.9167 5.22656 19.3021 6.20052 19.3594 7.41406L19.3672 7.85938C19.3672 8.69271 19.2057 9.4375 18.8828 10.0938C18.5651 10.75 18.1068 11.2578 17.5078 11.6172C16.9141 11.9766 16.2266 12.1562 15.4453 12.1562C14.2526 12.1562 13.2969 11.7604 12.5781 10.9688C11.8646 10.1719 11.5078 9.11198 11.5078 7.78906V7.69531ZM13.4062 7.85938C13.4062 8.72917 13.5859 9.41146 13.9453 9.90625C14.3047 10.3958 14.8047 10.6406 15.4453 10.6406C16.0859 10.6406 16.5833 10.3906 16.9375 9.89062C17.2969 9.39062 17.4766 8.65885 17.4766 7.69531C17.4766 6.84115 17.2917 6.16406 16.9219 5.66406C16.5573 5.16406 16.0599 4.91406 15.4297 4.91406C14.8099 4.91406 14.3177 5.16146 13.9531 5.65625C13.5885 6.14583 13.4062 6.88021 13.4062 7.85938ZM20.6172 7.69531C20.6172 6.86719 20.7812 6.1224 21.1094 5.46094C21.4375 4.79427 21.8984 4.28385 22.4922 3.92969C23.0859 3.57031 23.7682 3.39062 24.5391 3.39062C25.6797 3.39062 26.6042 3.75781 27.3125 4.49219C28.026 5.22656 28.4115 6.20052 28.4688 7.41406L28.4766 7.85938C28.4766 8.69271 28.3151 9.4375 27.9922 10.0938C27.6745 10.75 27.2161 11.2578 26.6172 11.6172C26.0234 11.9766 25.3359 12.1562 24.5547 12.1562C23.362 12.1562 22.4062 11.7604 21.6875 10.9688C20.974 10.1719 20.6172 9.11198 20.6172 7.78906V7.69531ZM22.5156 7.85938C22.5156 8.72917 22.6953 9.41146 23.0547 9.90625C23.4141 10.3958 23.9141 10.6406 24.5547 10.6406C25.1953 10.6406 25.6927 10.3906 26.0469 9.89062C26.4062 9.39062 26.5859 8.65885 26.5859 7.69531C26.5859 6.84115 26.401 6.16406 26.0312 5.66406C25.6667 5.16406 25.1693 4.91406 24.5391 4.91406C23.9193 4.91406 23.4271 5.16146 23.0625 5.65625C22.6979 6.14583 22.5156 6.88021 22.5156 7.85938ZM29.75 7.71094C29.75 6.39844 30.0573 5.35156 30.6719 4.57031C31.2917 3.78385 32.112 3.39062 33.1328 3.39062C34.0964 3.39062 34.8542 3.72656 35.4062 4.39844L35.4922 3.54688H37.2031V11.7422C37.2031 12.8516 36.8568 13.7266 36.1641 14.3672C35.4766 15.0078 34.5469 15.3281 33.375 15.3281C32.7552 15.3281 32.1484 15.1979 31.5547 14.9375C30.9661 14.6823 30.5182 14.3464 30.2109 13.9297L31.1094 12.7891C31.6927 13.4818 32.4115 13.8281 33.2656 13.8281C33.8958 13.8281 34.3932 13.6562 34.7578 13.3125C35.1224 12.974 35.3047 12.474 35.3047 11.8125V11.2422C34.7578 11.8516 34.0286 12.1562 33.1172 12.1562C32.1276 12.1562 31.3177 11.763 30.6875 10.9766C30.0625 10.1901 29.75 9.10156 29.75 7.71094ZM31.6406 7.875C31.6406 8.72396 31.8125 9.39323 32.1562 9.88281C32.5052 10.3672 32.987 10.6094 33.6016 10.6094C34.3672 10.6094 34.9349 10.2812 35.3047 9.625V5.90625C34.9453 5.26562 34.3828 4.94531 33.6172 4.94531C32.9922 4.94531 32.5052 5.19271 32.1562 5.6875C31.8125 6.18229 31.6406 6.91146 31.6406 7.875ZM41.1797 12H39.2812V0H41.1797V12ZM46.9766 12.1562C45.7734 12.1562 44.7969 11.7786 44.0469 11.0234C43.3021 10.263 42.9297 9.2526 42.9297 7.99219V7.75781C42.9297 6.91406 43.0911 6.16146 43.4141 5.5C43.7422 4.83333 44.2005 4.3151 44.7891 3.94531C45.3776 3.57552 46.0339 3.39062 46.7578 3.39062C47.9089 3.39062 48.7969 3.75781 49.4219 4.49219C50.0521 5.22656 50.3672 6.26562 50.3672 7.60938V8.375H44.8438C44.901 9.07292 45.1328 9.625 45.5391 10.0312C45.9505 10.4375 46.4661 10.6406 47.0859 10.6406C47.9557 10.6406 48.6641 10.2891 49.2109 9.58594L50.2344 10.5625C49.8958 11.0677 49.4427 11.4609 48.875 11.7422C48.3125 12.0182 47.6797 12.1562 46.9766 12.1562ZM46.75 4.91406C46.2292 4.91406 45.8073 5.09635 45.4844 5.46094C45.1667 5.82552 44.9635 6.33333 44.875 6.98438H48.4922V6.84375C48.4505 6.20833 48.2812 5.72917 47.9844 5.40625C47.6875 5.07812 47.276 4.91406 46.75 4.91406ZM57.9922 7.77344V12H56.0156V0.625H60.3672C61.638 0.625 62.6458 0.955729 63.3906 1.61719C64.1406 2.27865 64.5156 3.15365 64.5156 4.24219C64.5156 5.35677 64.1484 6.22396 63.4141 6.84375C62.6849 7.46354 61.6615 7.77344 60.3438 7.77344H57.9922ZM57.9922 6.1875H60.3672C61.0703 6.1875 61.6068 6.02344 61.9766 5.69531C62.3464 5.36198 62.5312 4.88281 62.5312 4.25781C62.5312 3.64323 62.3438 3.15365 61.9688 2.78906C61.5938 2.41927 61.0781 2.22917 60.4219 2.21875H57.9922V6.1875ZM68.0859 12H66.1875V0H68.0859V12ZM75.2109 12C75.1276 11.8385 75.0547 11.5755 74.9922 11.2109C74.388 11.8411 73.6484 12.1562 72.7734 12.1562C71.9245 12.1562 71.2318 11.9141 70.6953 11.4297C70.1589 10.9453 69.8906 10.3464 69.8906 9.63281C69.8906 8.73177 70.224 8.04167 70.8906 7.5625C71.5625 7.07812 72.5208 6.83594 73.7656 6.83594H74.9297V6.28125C74.9297 5.84375 74.8073 5.49479 74.5625 5.23438C74.3177 4.96875 73.9453 4.83594 73.4453 4.83594C73.013 4.83594 72.6589 4.94531 72.3828 5.16406C72.1068 5.3776 71.9688 5.65104 71.9688 5.98438H70.0703C70.0703 5.52083 70.224 5.08854 70.5312 4.6875C70.8385 4.28125 71.2552 3.96354 71.7812 3.73438C72.3125 3.50521 72.9036 3.39062 73.5547 3.39062C74.5443 3.39062 75.3333 3.64062 75.9219 4.14062C76.5104 4.63542 76.8125 5.33333 76.8281 6.23438V10.0469C76.8281 10.8073 76.9349 11.4141 77.1484 11.8672V12H75.2109ZM73.125 10.6328C73.5 10.6328 73.8516 10.5417 74.1797 10.3594C74.513 10.1771 74.763 9.93229 74.9297 9.625V8.03125H73.9062C73.2031 8.03125 72.6745 8.15365 72.3203 8.39844C71.9661 8.64323 71.7891 8.98958 71.7891 9.4375C71.7891 9.80208 71.9089 10.0938 72.1484 10.3125C72.3932 10.526 72.7188 10.6328 73.125 10.6328ZM81.6484 9.28125L83.3672 3.54688H85.3906L82.0312 13.2812C81.5156 14.7031 80.6406 15.4141 79.4062 15.4141C79.1302 15.4141 78.8255 15.3672 78.4922 15.2734V13.8047L78.8516 13.8281C79.3307 13.8281 79.6901 13.7396 79.9297 13.5625C80.1745 13.3906 80.3672 13.099 80.5078 12.6875L80.7812 11.9609L77.8125 3.54688H79.8594L81.6484 9.28125Z" fill="#150C01"/>
</svg>
